<svg width="48" height="48" viewBox="0 0 48 48" fill="none" xmlns="http://www.w3.org/2000/svg">
<rect width="48" height="48" rx="12" fill="#006FEE"/>
<path d="M15.8808 11.7475V10.0909H24.5846V11.7475H21.2128V21H19.2526V11.7475H15.8808ZM28.6129 21.1598C27.7926 21.1598 27.0842 20.9893 26.4876 20.6484C25.8945 20.304 25.4382 19.8175 25.1186 19.1889C24.799 18.5568 24.6392 17.8129 24.6392 16.957C24.6392 16.1154 24.799 15.3768 25.1186 14.7411C25.4418 14.1019 25.8928 13.6048 26.4716 13.2496C27.0504 12.891 27.7305 12.7116 28.5117 12.7116C29.016 12.7116 29.4918 12.7933 29.9393 12.9567C30.3903 13.1165 30.788 13.3651 31.1325 13.7024C31.4805 14.0398 31.7539 14.4695 31.9528 14.9915C32.1516 15.5099 32.2511 16.1278 32.2511 16.8452V17.4364H25.5447V16.1367H30.4027C30.3991 15.7674 30.3192 15.4389 30.163 15.1513C30.0067 14.8601 29.7884 14.631 29.5078 14.4641C29.2308 14.2972 28.9077 14.2138 28.5384 14.2138C28.1442 14.2138 27.7979 14.3097 27.4996 14.5014C27.2013 14.6896 26.9688 14.9382 26.8018 15.2472C26.6385 15.5526 26.555 15.8881 26.5515 16.2539V17.3885C26.5515 17.8643 26.6385 18.2727 26.8125 18.6136C26.9865 18.951 27.2298 19.2102 27.5423 19.3913C27.8548 19.5689 28.2205 19.6577 28.6396 19.6577C28.9201 19.6577 29.174 19.6186 29.4013 19.5405C29.6286 19.4588 29.8256 19.3398 29.9925 19.1836C30.1594 19.0273 30.2855 18.8338 30.3707 18.603L32.1712 18.8054C32.0575 19.2812 31.8409 19.6967 31.5213 20.0518C31.2053 20.4034 30.8004 20.6768 30.3068 20.8722C29.8132 21.0639 29.2486 21.1598 28.6129 21.1598ZM19.4996 28.8182L21.1509 31.8384L22.8288 28.8182H24.8689L22.4027 32.9091L24.9115 37H22.8821L21.1509 34.0543L19.4357 37H17.3902L19.8831 32.9091L17.4541 28.8182H19.4996ZM30.446 28.8182V30.3097H25.7425V28.8182H30.446ZM26.9037 26.858H28.832V34.5391C28.832 34.7983 28.871 34.9972 28.9492 35.1357C29.0309 35.2706 29.1374 35.3629 29.2688 35.4126C29.4002 35.4624 29.5458 35.4872 29.7056 35.4872C29.8263 35.4872 29.9364 35.4783 30.0358 35.4606C30.1388 35.4428 30.2169 35.4268 30.2702 35.4126L30.5951 36.9201C30.4921 36.9556 30.3448 36.9947 30.153 37.0373C29.9648 37.0799 29.734 37.1048 29.4605 37.1119C28.9776 37.1261 28.5426 37.0533 28.1555 36.8935C27.7684 36.7301 27.4612 36.478 27.234 36.1371C27.0103 35.7962 26.9002 35.37 26.9037 34.8587V26.858Z" fill="white"/>
</svg>
